<svg xmlns="http://www.w3.org/2000/svg" viewBox="0 0 228.21 224.49"><defs><style>.cls-1{fill:#f0647d;}.cls-2{fill:#1a2e35;}</style></defs><g id="Layer_2" data-name="Layer 2"><g id="Layer_1-2" data-name="Layer 1"><path class="cls-1" d="M140.17,176.88a5,5,0,0,1-4.72-6.65l14.49-41.43a6.3,6.3,0,0,0-.48-5.35L119.65,72.89a6.36,6.36,0,0,0-9.32-2,6.59,6.59,0,0,0-1.75,2L78.77,123.42a6.27,6.27,0,0,0-.52,5.32l14.5,41.46a5,5,0,0,1-9.44,3.3L68.83,132.1a16.25,16.25,0,0,1,1.35-13.79L100,67.81a16.53,16.53,0,0,1,4.62-5.11,16.36,16.36,0,0,1,23.72,5.15l29.77,50.49a16.3,16.3,0,0,1,1.3,13.81l-14.47,41.38a5,5,0,0,1-4.72,3.35Z"/><path class="cls-1" d="M155.09,195.49h-82a14.14,14.14,0,0,1,0-28.27h82a14.14,14.14,0,1,1,0,28.27Zm-82-18.27a4.14,4.14,0,0,0,0,8.27h82a4.14,4.14,0,1,0,0-8.27Z"/><path class="cls-1" d="M79.8,224.49a5,5,0,0,1-5-5V192.75a5,5,0,0,1,10,0v26.74A5,5,0,0,1,79.8,224.49Z"/><path class="cls-1" d="M148.41,224.49a5,5,0,0,1-5-5V192.75a5,5,0,0,1,10,0v26.74A5,5,0,0,1,148.41,224.49Z"/><path class="cls-1" d="M114.1,119.87a5,5,0,0,1-5-5V67a5,5,0,1,1,10,0v47.89A5,5,0,0,1,114.1,119.87Z"/><path class="cls-1" d="M114.1,143.19a16.66,16.66,0,1,1,16.67-16.66,16.68,16.68,0,0,1-16.67,16.66Zm0-23.32a6.66,6.66,0,1,0,6.67,6.66,6.66,6.66,0,0,0-6.67-6.66Z"/><path class="cls-2" d="M98.3,16.56H43.37a5,5,0,0,0,0,10H71a98.87,98.87,0,0,0-55.1,84,5,5,0,0,0,4.78,5.22h.22a5,5,0,0,0,5-4.78A88.68,88.68,0,0,1,99.14,27.82a5,5,0,0,0,4.1-5.65,4.07,4.07,0,0,0,.06-.61,5,5,0,0,0-5-5Z"/><path class="cls-2" d="M157.18,26.56h27.66a5,5,0,0,0,0-10H129.9A5,5,0,0,0,126,24.64,5,5,0,0,0,129.82,28c40.23,7.23,70.72,42.13,72.5,83a5,5,0,0,0,5,4.78h.22a5,5,0,0,0,4.78-5.22c-1.58-36.32-23.55-68.39-55.13-83.95Z"/><path class="cls-1" d="M26,41.6a20.8,20.8,0,1,1,20.8-20.8A20.82,20.82,0,0,1,26,41.6ZM26,10a10.8,10.8,0,1,0,10.8,10.8A10.81,10.81,0,0,0,26,10Z"/><path class="cls-1" d="M200.64,41.6a20.8,20.8,0,1,1,20.8-20.8A20.82,20.82,0,0,1,200.64,41.6Zm0-31.6a10.8,10.8,0,1,0,10.8,10.8A10.81,10.81,0,0,0,200.64,10Z"/><path class="cls-1" d="M114.1,41.6a20.8,20.8,0,1,1,20.8-20.8,20.83,20.83,0,0,1-20.8,20.8Zm0-31.6a10.8,10.8,0,1,0,10.8,10.8A10.81,10.81,0,0,0,114.1,10Z"/><path class="cls-1" d="M20.8,147.33a20.8,20.8,0,1,1,20.8-20.8A20.82,20.82,0,0,1,20.8,147.33Zm0-31.6a10.8,10.8,0,1,0,10.8,10.8A10.81,10.81,0,0,0,20.8,115.73Z"/><path class="cls-1" d="M207.41,147.33a20.8,20.8,0,1,1,20.8-20.8A20.82,20.82,0,0,1,207.41,147.33Zm0-31.6a10.8,10.8,0,1,0,10.8,10.8A10.81,10.81,0,0,0,207.41,115.73Z"/></g></g></svg>