<?xml version="1.0" encoding="utf-8"?>
<!-- Generator: Adobe Illustrator 25.0.0, SVG Export Plug-In . SVG Version: 6.00 Build 0)  -->
<svg version="1.1" id="Layer_1" xmlns="http://www.w3.org/2000/svg" xmlns:xlink="http://www.w3.org/1999/xlink" x="0px" y="0px"
	 viewBox="0 0 569 573" style="enable-background:new 0 0 569 573;" xml:space="preserve">
<style type="text/css">
	.st0{fill:#666565;stroke:#666565;stroke-width:8.5039;stroke-miterlimit:10;}
</style>
<g id="Layer_2_2_">
	<g id="Capa_1_1_">
		<path class="st0" d="M-1032.5,35.8c-141.3,0-256,115.1-256,257c-0.1,110.5,70.4,208.7,175.1,243.9c12.8,2.4,17.5-5.6,17.5-12.4
			c0-6.1-0.2-22.3-0.4-43.7c-71.2,15.5-86.2-34.5-86.2-34.5c-11.6-29.7-28.4-37.6-28.4-37.6c-23.2-15.9,1.8-15.7,1.8-15.7
			c25.7,1.8,39.2,26.5,39.2,26.5c22.8,39.3,59.9,27.9,74.5,21.3c2.3-16.6,8.9-27.9,16.2-34.4c-56.8-6.5-116.6-28.5-116.6-127
			c0-28.1,10-51,26.4-69c-2.7-6.5-11.4-32.6,2.5-68c0,0,21.5-6.9,70.4,26.3c42-11.5,86.2-11.5,128.2,0
			c48.9-33.2,70.3-26.3,70.3-26.3c14,35.4,5.2,61.5,2.6,68c16.4,18,26.3,40.9,26.3,69c0,98.7-59.8,120.4-116.9,126.8
			c9.2,7.9,17.4,23.6,17.4,47.6c0,34.4-0.3,62.1-0.3,70.5c0,6.9,4.6,14.9,17.6,12.4c104.6-35.3,175-133.4,174.9-243.8
			C-776.5,150.9-891.1,35.8-1032.5,35.8z"/>
	</g>
</g>
<g>
	<path class="st0" d="M-550.4,34.8c-18.8,0-35.8,6.8-48.6,19.6c-13.6,13.7-20.5,30.7-20.5,48.6c0,18.3,7.4,35.8,20.5,48.6
		c12.8,12.8,30.7,20.5,47.8,19.6h1.7c17.1,0,33.3-6.8,46.1-19.6c13.1-12.8,20.4-30.3,20.5-48.6c0.9-17.9-6.8-35-19.6-47.8
		C-514.9,42-532.3,34.6-550.4,34.8z M-515.4,139.8c-9.4,9.4-22.2,15.4-35.8,14.5c-12.8,0-26.5-5.1-35.8-14.5
		c-10.2-9.4-15.4-23-15.4-36.7c-0.1-13.8,5.5-27.1,15.4-36.7c9.4-9.4,22.2-14.5,36.7-14.5c13.1,0,25.7,5.2,35,14.5
		c9.9,9.6,15.4,22.9,15.4,36.7C-500,116.7-505.1,130.3-515.4,139.8L-515.4,139.8z"/>
	<path class="st0" d="M-517.1,188.4h-69.1c-13.7,0-24.8,11.1-24.8,25.6v298.7c0,13.6,12,25.6,25.6,25.6h68.3
		c13.6,0,25.6-12,25.6-24.8V214C-491.5,200.3-503.5,188.4-517.1,188.4z M-508.6,513.5c0,4.3-4.3,7.7-8.5,7.7h-68.3
		c-4.3,0-8.5-4.3-8.5-8.5V214c0-4.3,3.4-8.5,7.7-8.5h69.1c4.3,0,8.5,4.3,8.5,8.5V513.5z"/>
	<path class="st0" d="M-227,179.8h-17.9c-33.3,0-64.9,14.5-85.3,37.5v-11.9c0-8.5-8.5-17.1-17.1-17.1h-85.3
		c-7.7,0-17.1,6.8-17.1,16.2v318.3c0,9.4,9.4,15.4,17.1,15.4h93.9c7.7,0,17.1-6,17.1-15.4V338.5c0-28.2,20.5-50.3,46.9-50.3
		c13.4-0.1,26.3,5.1,35.8,14.5c8.5,7.7,11.9,19.6,11.9,35v183.5c0,8.5,8.5,17.1,17.1,17.1h85.3c8.5,0,17.1-8.5,17.1-17.1V301
		C-107.5,232.8-159.5,179.8-227,179.8z M-124.6,520.3l-0.9,0.9H-209l-0.9-183.5c0-20.5-5.1-35.8-16.2-46.9
		c-12.7-12.7-29.9-19.7-47.8-19.6c-35.8,0.9-64,29.9-64,67.4v182.6h-93.9V205.4h84.5l0.9,0.9V260l23-23l0.9-0.9
		c17.1-23.9,46.9-39.3,78.5-39.3h17.9c57.2,0,101.5,46.1,101.5,104.1L-124.6,520.3z"/>
</g>
<g id="Layer_2_1_">
	<g id="Capa_1">
		<path class="st0" d="M514.2,115.8H54.8c-14.5,0-26.2,11.8-26.3,26.3v288.8c0,14.5,11.8,26.2,26.3,26.2h459.5
			c14.5,0,26.2-11.8,26.3-26.2V142.1C540.5,127.6,528.7,115.9,514.2,115.8z M504.4,135.5L299.6,289.1c-3.7,2.8-9.3,4.6-15.1,4.5
			s-11.4-1.7-15.1-4.5L64.6,135.5H504.4z M395,299.3l111.6,137.8c0.1,0.1,0.2,0.3,0.4,0.4H62c0.1-0.1,0.3-0.2,0.4-0.4L174,299.3
			c3.4-4.2,2.8-10.4-1.4-13.9c-4.2-3.4-10.4-2.8-13.9,1.4L48.2,423.4V147.8l209.4,157c16.2,11.3,37.7,11.3,53.8,0l209.4-157v275.5
			L410.3,286.8c-3.4-4.2-9.6-4.9-13.9-1.5C392.2,288.8,391.6,295,395,299.3L395,299.3z"/>
	</g>
</g>
</svg>
