<svg xmlns="http://www.w3.org/2000/svg" viewBox="0 0 180.41 409.81"><defs><style>.cls-1{fill:#1a2e35;}.cls-2{fill:#f0647d;}</style></defs><g id="Layer_2" data-name="Layer 2"><g id="Layer_1-2" data-name="Layer 1"><path class="cls-1" d="M63.49,409.81a8.28,8.28,0,0,1-8.28-8.28V155.07a8.28,8.28,0,0,1,16.56,0V401.53A8.28,8.28,0,0,1,63.49,409.81Z"/><path class="cls-1" d="M114.47,409.81a8.28,8.28,0,0,1-8.28-8.28V155.07a8.28,8.28,0,0,1,16.56,0V401.53A8.28,8.28,0,0,1,114.47,409.81Z"/><path class="cls-2" d="M179.38,151,97.44,4.25A8.27,8.27,0,0,0,83,4.25L1.05,151a8.24,8.24,0,0,0-1,4V401.53a8.28,8.28,0,0,0,8.28,8.28H172.13a8.28,8.28,0,0,0,8.28-8.28V155.07a8.22,8.22,0,0,0-1-4ZM58.88,81.43h62.69l36.48,65.36H22.4ZM90.23,25.27l22.09,39.6H68.1Zm-73.67,368V163.35h147.3v229.9Z"/></g></g></svg>