<svg xmlns="http://www.w3.org/2000/svg" viewBox="0 0 419.06 342.34"><defs><style>.cls-1{fill:#1a2e35;}.cls-2{fill:#f0647d;}</style></defs><g id="Layer_2" data-name="Layer 2"><g id="Layer_1-2" data-name="Layer 1"><path class="cls-1" d="M393.71,0H25.34A25.37,25.37,0,0,0,0,25.34V237.47a25.37,25.37,0,0,0,25.34,25.35H393.71a25.38,25.38,0,0,0,25.35-25.35V25.34A25.37,25.37,0,0,0,393.71,0Zm15.35,237.47a15.37,15.37,0,0,1-15.35,15.35H25.34A15.36,15.36,0,0,1,10,237.47V25.34A15.36,15.36,0,0,1,25.34,10H393.71a15.36,15.36,0,0,1,15.35,15.34Z"/><path class="cls-1" d="M292.18,309.77H243V277.82a5,5,0,1,0-10,0v31.95H186.05V277.82a5,5,0,0,0-10,0v31.95H126.87a16.29,16.29,0,0,0,0,32.57H292.18a16.29,16.29,0,0,0,0-32.57Zm0,22.57H126.87a6.29,6.29,0,0,1,0-12.58H292.18a6.29,6.29,0,1,1,0,12.58Z"/><path class="cls-2" d="M249.23,148.8H193.55a4.09,4.09,0,0,1-4.09-4.09V89A4.09,4.09,0,0,1,193.55,85h55.69A4.08,4.08,0,0,1,253.32,89v55.69a4.09,4.09,0,0,1-4.09,4.08Zm-51.6-8.17h47.52V93.11H197.63Z"/><path class="cls-2" d="M126.78,195.93H87.59a4.08,4.08,0,0,1,0-8.16h39.19a4.08,4.08,0,1,1,0,8.16Z"/><path class="cls-2" d="M126.78,213.8H87.59a4.08,4.08,0,1,1,0-8.16h39.19a4.08,4.08,0,1,1,0,8.16Z"/><path class="cls-2" d="M126.78,231.67H87.59a4.08,4.08,0,0,1,0-8.16h39.19a4.08,4.08,0,1,1,0,8.16Z"/><path class="cls-2" d="M334.52,195.93h-39.2a4.08,4.08,0,1,1,0-8.16h39.2a4.08,4.08,0,1,1,0,8.16Z"/><path class="cls-2" d="M334.52,213.8h-39.2a4.08,4.08,0,1,1,0-8.16h39.2a4.08,4.08,0,1,1,0,8.16Z"/><path class="cls-2" d="M334.52,231.67h-39.2a4.08,4.08,0,1,1,0-8.16h39.2a4.08,4.08,0,1,1,0,8.16Z"/><path class="cls-2" d="M181.15,234a24.26,24.26,0,1,1,24.26-24.26h0A24.28,24.28,0,0,1,181.15,234Zm0-40.35a16.1,16.1,0,1,0,16.09,16.1h0a16.11,16.11,0,0,0-16.09-16.09Z"/><path class="cls-2" d="M241,234a24.26,24.26,0,1,1,24.26-24.26h0A24.28,24.28,0,0,1,241,234Zm0-40.35a16.1,16.1,0,1,0,16.09,16.1h0A16.11,16.11,0,0,0,241,193.63Z"/><path class="cls-2" d="M334.52,148.8H278.83a4.08,4.08,0,0,1-4.08-4.09V89A4.08,4.08,0,0,1,278.83,85h55.69A4.08,4.08,0,0,1,338.6,89v55.69A4.08,4.08,0,0,1,334.52,148.8Zm-51.6-8.17h47.52V93.11H282.91Z"/><path class="cls-1" d="M87.15,51.55A11.84,11.84,0,1,0,75.3,39.71,11.85,11.85,0,0,0,87.15,51.55Zm0-15.52a3.68,3.68,0,1,1-3.68,3.68h0A3.68,3.68,0,0,1,87.15,36Z"/><path class="cls-1" d="M117.36,51.55a11.84,11.84,0,1,0-11.84-11.84A11.85,11.85,0,0,0,117.36,51.55Zm0-15.52a3.68,3.68,0,1,1-3.68,3.68h0A3.69,3.69,0,0,1,117.36,36Z"/><path class="cls-1" d="M147.57,51.55a11.84,11.84,0,1,0-11.84-11.84A11.85,11.85,0,0,0,147.57,51.55Zm0-15.52a3.68,3.68,0,1,1-3.67,3.68h0A3.67,3.67,0,0,1,147.57,36Z"/><path class="cls-1" d="M290,43.79h47.36a4.09,4.09,0,0,0,0-8.17H290a4.09,4.09,0,1,0,0,8.17Z"/><path class="cls-1" d="M231.93,131.3a4.09,4.09,0,0,0,4.09-4.09,4,4,0,0,0-1.2-2.88l-7.66-7.66,7.66-7.66a4.08,4.08,0,0,0-5.67-5.88l-.1.1-7.66,7.66-7.66-7.66A4.09,4.09,0,0,0,208,109l7.66,7.66L208,124.33a4.08,4.08,0,1,0,5.68,5.87l.1-.1,7.66-7.66,7.66,7.66a4,4,0,0,0,2.88,1.2Z"/><path class="cls-1" d="M152.72,122.24a4.07,4.07,0,0,0-5.67-1.06,3.94,3.94,0,0,0-1,.93l-13.16,17.76-12-17.63a4.08,4.08,0,0,0-5.68-1.06,4.28,4.28,0,0,0-1,.93l-29.9,40.34a4.08,4.08,0,0,0,6.56,4.86l26.48-35.72,10.41,15.23-11.58,15.63a4.08,4.08,0,0,0,6.56,4.86l26.48-35.72,11.35,16.6a4.08,4.08,0,0,0,6.74-4.61h0Z"/><path class="cls-1" d="M116.56,118.69a11.63,11.63,0,1,0-11.63-11.63A11.63,11.63,0,0,0,116.56,118.69Zm0-15.1a3.47,3.47,0,1,1-3.46,3.47h0a3.46,3.46,0,0,1,3.46-3.47Z"/><path class="cls-1" d="M184,203.47a4.1,4.1,0,0,0-5.78,0l-6.59,6.59a4.09,4.09,0,0,0,5.78,5.78h0l3.7-3.71,3.7,3.7a4.08,4.08,0,0,0,5.78-5.77Z"/><path class="cls-1" d="M244.66,203.61l-3.7,3.7-3.71-3.7a4.08,4.08,0,1,0-5.8,5.75l0,0,6.59,6.59a4.07,4.07,0,0,0,5.77,0h0l6.59-6.59a4.08,4.08,0,0,0-5.77-5.77Z"/><path class="cls-1" d="M316.55,107.76l-13.17,13.17-6.44-6.44a4.08,4.08,0,1,0-5.77,5.77l9.32,9.33a4.08,4.08,0,0,0,5.78,0h0l16.06-16.06a4.08,4.08,0,1,0-5.68-5.87Z"/><path class="cls-2" d="M334.52,169h-141a4.08,4.08,0,1,1,0-8.16h141a4.08,4.08,0,1,1,0,8.16Z"/><path class="cls-2" d="M163.94,169H87.59a4.08,4.08,0,0,1-4.08-4.08V88.53a4.07,4.07,0,0,1,4.08-4.08h76.35A4.08,4.08,0,0,1,168,88.53v76.35A4.08,4.08,0,0,1,163.94,169ZM91.67,160.8h68.19V92.61H91.67Z"/></g></g></svg>